<?xml version="1.0" encoding="utf-8"?>
<svg viewBox="194 213 136 136" xmlns="http://www.w3.org/2000/svg">
  <path fill="#000" d="M 242.3 224.31 L 241.5 216.09 L 247.3 214.54 L 250.72 222.06 C 252.98 221.63 255.29 221.32 257.64 221.16 L 259 213 L 265 213 L 266.36 221.16 C 268.71 221.32 271.02 221.63 273.28 222.06 L 276.7 214.54 L 282.5 216.09 L 281.7 224.31 C 283.91 225.08 286.07 225.97 288.15 226.99 L 293.4 220.61 L 298.6 223.61 L 295.7 231.35 C 297.624 232.659 299.47 234.078 301.23 235.6 L 307.96 230.8 L 312.2 235.04 L 307.4 241.77 C 308.922 243.53 310.341 245.376 311.65 247.3 L 319.39 244.4 L 322.39 249.6 L 316.01 254.85 C 317.029 256.946 317.923 259.099 318.69 261.3 L 326.91 260.5 L 328.46 266.3 L 320.94 269.72 C 321.37 271.98 321.68 274.29 321.84 276.64 L 330 278 L 330 284 L 321.84 285.36 C 321.674 287.682 321.374 289.993 320.94 292.28 L 328.46 295.7 L 326.91 301.5 L 318.69 300.7 C 317.923 302.901 317.029 305.054 316.01 307.15 L 322.39 312.4 L 319.39 317.6 L 311.65 314.7 C 310.341 316.624 308.922 318.47 307.4 320.23 L 312.2 326.96 L 307.96 331.2 L 301.23 326.4 C 299.47 327.922 297.624 329.341 295.7 330.65 L 298.6 338.39 L 293.4 341.39 L 288.15 335.01 C 286.054 336.029 283.901 336.923 281.7 337.69 L 282.5 345.91 L 276.7 347.46 L 273.28 339.94 C 271.02 340.37 268.71 340.68 266.36 340.84 L 265 349 L 259 349 L 257.64 340.84 C 255.318 340.674 253.007 340.374 250.72 339.94 L 247.3 347.46 L 241.5 345.91 L 242.3 337.69 C 240.099 336.923 237.946 336.029 235.85 335.01 L 230.6 341.39 L 225.4 338.39 L 228.3 330.65 C 226.376 329.341 224.53 327.922 222.77 326.4 L 216.04 331.2 L 211.8 326.96 L 216.6 320.23 C 215.078 318.47 213.659 316.624 212.35 314.7 L 204.61 317.6 L 201.61 312.4 L 207.99 307.15 C 206.971 305.054 206.077 302.901 205.31 300.7 L 197.09 301.5 L 195.54 295.7 L 203.06 292.28 C 202.63 289.99 202.33 287.68 202.16 285.36 L 194 284 L 194 278 L 202.16 276.64 C 202.32 274.29 202.63 271.98 203.06 269.72 L 195.54 266.3 L 197.09 260.5 L 205.31 261.3 C 206.08 259.1 206.97 256.95 207.99 254.85 L 201.61 249.6 L 204.61 244.4 L 212.35 247.3 C 213.659 245.376 215.078 243.53 216.6 241.77 L 211.8 235.04 L 216.04 230.8 L 222.77 235.6 C 224.53 234.078 226.376 232.659 228.3 231.35 L 225.4 223.61 L 230.6 220.61 L 235.85 226.99 C 237.946 225.971 240.099 225.077 242.3 224.31 Z M 244.42 225.71 C 241.27 226.71 238.23 227.98 235.34 229.48 L 230.15 223.18 L 227.85 224.51 L 230.71 232.16 C 227.95 233.93 225.344 235.931 222.92 238.14 L 216.27 233.39 L 214.39 235.27 L 219.14 241.92 C 216.931 244.344 214.93 246.95 213.16 249.71 L 205.51 246.85 L 204.18 249.15 L 210.48 254.35 C 208.968 257.261 207.706 260.295 206.71 263.42 L 198.59 262.63 L 197.9 265.21 L 205.33 268.59 C 204.633 271.792 204.208 275.047 204.06 278.32 L 196 279.67 L 196 282.33 L 204.06 283.68 C 204.21 287 204.64 290.26 205.33 293.41 L 197.9 296.79 L 198.6 299.37 L 206.71 298.58 C 207.71 301.73 208.98 304.77 210.48 307.66 L 204.18 312.85 L 205.51 315.15 L 213.16 312.29 C 214.93 315.05 216.931 317.656 219.14 320.08 L 214.39 326.73 L 216.27 328.61 L 222.92 323.86 C 225.35 326.062 227.955 328.062 230.71 329.84 L 227.85 337.49 L 230.15 338.82 L 235.35 332.52 C 238.259 334.035 241.294 335.297 244.42 336.29 L 243.63 344.41 L 246.21 345.1 L 249.59 337.67 C 252.74 338.36 255.99 338.79 259.32 338.94 L 260.67 347 L 263.33 347 L 264.68 338.94 C 268 338.79 271.26 338.36 274.41 337.67 L 277.79 345.1 L 280.37 344.4 L 279.58 336.29 C 282.73 335.29 285.77 334.02 288.66 332.52 L 293.85 338.82 L 296.15 337.49 L 293.29 329.84 C 296.05 328.07 298.656 326.069 301.08 323.86 L 307.73 328.61 L 309.61 326.73 L 304.86 320.08 C 307.062 317.65 309.062 315.045 310.84 312.29 L 318.49 315.15 L 319.82 312.85 L 313.52 307.65 C 315.035 304.741 316.297 301.706 317.29 298.58 L 325.41 299.37 L 326.1 296.79 L 318.67 293.41 C 319.367 290.208 319.792 286.953 319.94 283.68 L 328 282.33 L 328 279.67 L 319.94 278.32 C 319.792 275.047 319.367 271.792 318.67 268.59 L 326.1 265.21 L 325.4 262.63 L 317.29 263.42 C 316.29 260.27 315.02 257.23 313.52 254.34 L 319.82 249.15 L 318.49 246.85 L 310.84 249.71 C 309.07 246.95 307.069 244.344 304.86 241.92 L 309.61 235.27 L 307.73 233.39 L 301.08 238.14 C 298.656 235.931 296.05 233.93 293.29 232.16 L 296.15 224.51 L 293.85 223.18 L 288.65 229.48 C 285.739 227.968 282.705 226.706 279.58 225.71 L 280.37 217.59 L 277.79 216.9 L 274.41 224.33 C 271.208 223.633 267.953 223.208 264.68 223.06 L 263.33 215 L 260.67 215 L 259.32 223.06 C 256 223.21 252.74 223.64 249.59 224.33 L 246.21 216.9 L 243.63 217.6 L 244.42 225.71 Z M 249 275.81 C 247.663 279.144 247.663 282.866 249 286.2 L 215.12 305.75 C 211.088 298.124 208.986 289.626 209 281 C 209 272.06 211.21 263.63 215.12 256.25 L 249 275.8 L 249 275.81 Z M 251 272.34 L 217.13 252.78 C 226.451 237.953 242.499 228.693 260 228.04 L 260 267.14 C 256.444 267.653 253.221 269.515 251 272.34 Z M 251 289.66 C 253.221 292.485 256.444 294.347 260 294.86 L 260 333.96 C 242.499 333.307 226.451 324.047 217.13 309.22 L 251 289.66 Z M 264 294.86 C 267.556 294.347 270.779 292.485 273 289.66 L 306.87 309.22 C 297.549 324.047 281.501 333.307 264 333.96 L 264 294.86 Z M 275 286.2 C 276.34 282.863 276.34 279.137 275 275.8 L 308.88 256.25 C 312.912 263.876 315.014 272.374 315 281 C 315 289.94 312.79 298.37 308.88 305.75 L 275 286.2 Z M 273 272.34 C 270.779 269.515 267.556 267.653 264 267.14 L 264 228.04 C 281.501 228.693 297.549 237.953 306.87 252.78 L 273 272.34 Z M 215.96 259.04 C 212.685 265.897 210.99 273.401 211 281 C 210.99 288.599 212.685 296.103 215.96 302.96 L 246.58 285.28 C 245.8 282.48 245.8 279.52 246.58 276.72 L 215.96 259.04 Z M 219.96 252.11 L 250.58 269.79 C 252.62 267.715 255.184 266.232 258 265.5 L 258 230.15 C 242.654 231.349 228.673 239.421 219.96 252.11 Z M 219.96 309.89 C 228.673 322.579 242.654 330.651 258 331.85 L 258 296.5 C 255.182 295.772 252.617 294.289 250.58 292.21 L 219.96 309.89 Z M 266 331.85 C 281.346 330.651 295.327 322.579 304.04 309.89 L 273.42 292.21 C 271.38 294.285 268.816 295.768 266 296.5 L 266 331.85 Z M 308.04 302.96 C 311.315 296.103 313.01 288.599 313 281 C 313.01 273.401 311.315 265.897 308.04 259.04 L 277.42 276.72 C 278.2 279.52 278.2 282.48 277.42 285.28 L 308.04 302.96 Z M 304.04 252.11 C 295.327 239.421 281.346 231.349 266 230.15 L 266 265.5 C 268.86 266.24 271.41 267.75 273.42 269.79 L 304.04 252.11 Z M 262 290 C 255.072 290 250.742 282.5 254.206 276.5 C 255.813 273.715 258.785 272 262 272 C 268.928 272 273.258 279.5 269.794 285.5 C 268.187 288.285 265.215 290 262 290 Z M 262 288 C 267.389 288 270.756 282.167 268.062 277.5 C 266.812 275.334 264.501 274 262 274 C 256.611 274 253.244 279.833 255.938 284.5 C 257.188 286.666 259.499 288 262 288 Z"/>
</svg>